<?xml version="1.0" standalone="no"?>
<!DOCTYPE svg PUBLIC "-//W3C//DTD SVG 20010904//EN"
 "http://www.w3.org/TR/2001/REC-SVG-20010904/DTD/svg10.dtd">
<svg version="1.0" xmlns="http://www.w3.org/2000/svg"
 width="640.000000pt" height="640.000000pt" viewBox="0 0 640.000000 640.000000"
 preserveAspectRatio="xMidYMid meet">
<metadata>
Created by potrace 1.14, written by Peter Selinger 2001-2017
</metadata>
<g transform="translate(0.000000,640.000000) scale(0.100000,-0.100000)"
fill="#000000" stroke="none">
<path d="M140 6330 l0 -70 -70 0 -70 0 0 -65 0 -66 68 3 67 3 3 62 3 62 62 3
62 3 3 68 3 67 -66 0 -65 0 0 -70z"/>
<path d="M400 6330 l0 -70 -65 0 -65 0 0 -65 0 -65 -65 0 -65 0 0 -65 0 -65
-70 0 -70 0 0 -65 0 -65 70 0 70 0 0 -70 0 -70 -70 0 -70 0 0 -65 0 -65 70 0
70 0 0 -70 0 -70 -70 0 -70 0 0 -65 0 -66 68 3 67 3 3 62 3 62 62 3 62 3 3 68
3 67 64 0 65 0 0 -70 0 -70 -65 0 -65 0 0 -65 0 -65 -65 0 -65 0 0 -65 0 -65
-70 0 -70 0 0 -65 0 -65 70 0 70 0 0 -70 0 -70 -70 0 -70 0 0 -65 0 -65 70 0
70 0 0 -70 0 -70 -70 0 -70 0 0 -65 0 -66 68 3 67 3 1 60 1 60 56 5 c31 3 61
4 67 2 5 -2 10 -33 10 -68 l0 -64 -65 0 -65 0 0 -65 0 -65 -70 0 -70 0 0 -65
0 -65 70 0 70 0 0 -70 0 -70 -70 0 -70 0 0 -65 0 -66 67 3 68 3 2 45 c1 25 2
53 2 62 1 14 13 18 64 20 l62 3 3 68 3 67 64 0 65 0 0 65 0 65 65 0 65 0 0 65
0 65 70 0 70 0 0 65 0 65 65 0 65 0 0 70 0 70 70 0 70 0 0 65 0 65 65 0 65 0
0 70 0 70 65 0 65 0 0 65 0 65 65 0 65 0 0 65 0 64 68 3 67 3 3 63 3 62 64 0
65 0 0 70 0 70 71 0 71 0 -2 48 c-4 86 -7 82 65 82 l65 0 0 70 0 70 65 0 65 0
0 65 0 65 65 0 65 0 0 65 0 65 70 0 70 0 0 65 0 65 65 0 65 0 0 70 0 70 -65 0
-65 0 0 -70 0 -70 -70 0 -70 0 0 -65 0 -65 -65 0 -65 0 0 65 0 65 -65 0 -65 0
0 -65 0 -65 -65 0 -65 0 0 -65 0 -65 -70 0 -70 0 0 65 c0 72 -3 69 81 65 47
-2 61 17 57 77 l-3 48 -67 3 -68 3 0 69 0 70 -65 0 -65 0 0 -70 0 -70 -70 0
-70 0 0 70 0 70 -65 0 -66 0 3 -67 3 -68 63 -3 62 -3 0 -64 0 -65 -65 0 -65 0
0 65 0 65 -65 0 -65 0 0 -65 0 -65 -64 0 c-35 0 -66 4 -68 10 -2 5 -1 34 0 64
l4 55 61 3 62 3 3 68 3 67 -66 0 -65 0 0 -70 0 -70 -70 0 -70 0 0 70 0 70 -65
0 -66 0 3 -67 3 -68 63 -3 62 -3 0 -64 0 -65 -65 0 -65 0 0 65 0 65 -70 0 -70
0 0 70 0 70 -65 0 -65 0 0 -70z m132 -135 l3 -60 68 -3 67 -3 0 -64 0 -65 65
0 65 0 0 65 0 65 70 0 70 0 0 -65 0 -65 65 0 65 0 0 65 0 65 65 0 65 0 0 -65
0 -65 65 0 65 0 0 65 0 65 70 0 70 0 0 64 c0 35 4 66 10 68 5 2 35 1 65 0 l55
-4 0 -64 0 -64 -65 0 -65 0 0 -65 0 -65 65 0 65 0 0 -65 0 -65 70 0 70 0 0 65
0 65 65 0 65 0 0 65 0 65 65 0 65 0 0 -65 0 -65 -65 0 -65 0 0 -65 0 -65 -65
0 -65 0 0 -70 0 -70 -70 0 -70 0 0 -65 0 -65 -65 0 -65 0 0 -70 0 -70 -70 0
-70 0 0 -65 0 -65 -65 0 -65 0 0 -65 0 -65 -65 0 -65 0 0 -65 0 -65 -65 0 -65
0 0 -70 0 -70 -70 0 -70 0 0 -65 0 -65 -65 0 -65 0 0 -70 0 -70 -70 0 -70 0 0
-65 0 -65 -65 0 -65 0 0 -65 0 -65 -65 0 -65 0 0 -65 0 -65 -64 0 -64 0 -4 61
c-1 33 -1 63 1 65 2 2 33 4 68 4 l63 0 0 65 0 65 65 0 65 0 0 65 0 65 -65 0
-65 0 0 70 0 70 -65 0 -65 0 0 65 0 65 65 0 65 0 0 70 0 70 -65 0 -65 0 0 65
0 65 65 0 65 0 0 65 0 65 65 0 65 0 0 65 0 65 65 0 65 0 0 70 0 70 -65 0 -65
0 0 65 0 65 -65 0 -65 0 0 -65 0 -65 -65 0 -65 0 0 65 0 64 63 3 62 3 3 68 3
67 -65 0 c-73 0 -75 2 -67 88 l3 42 64 0 64 0 0 65 0 65 65 0 65 0 0 65 0 64
58 3 c31 2 60 1 64 -2 4 -3 8 -32 10 -65z"/>
<path d="M400 6065 l0 -65 -65 0 -65 0 0 -65 0 -65 65 0 65 0 0 -70 0 -70 65
0 65 0 0 -65 0 -65 70 0 70 0 0 -70 0 -70 -70 0 -70 0 0 -65 0 -65 -65 0 -65
0 0 -65 0 -65 -65 0 -65 0 0 -65 0 -65 65 0 65 0 0 -70 0 -70 -65 0 -65 0 0
-65 0 -65 65 0 65 0 0 -70 0 -70 65 0 65 0 0 70 0 70 70 0 70 0 0 65 0 65 65
0 65 0 0 70 0 70 70 0 70 0 0 65 0 65 65 0 65 0 0 65 0 65 65 0 65 0 0 65 0
65 65 0 65 0 0 70 0 70 70 0 70 0 0 65 0 65 65 0 65 0 0 70 0 71 -62 -3 -63
-3 -3 -67 -3 -68 -69 0 -70 0 0 70 0 70 70 0 70 0 0 65 0 65 -70 0 -70 0 0
-65 0 -65 -65 0 -65 0 0 65 0 65 -65 0 -65 0 0 -65 0 -65 65 0 65 0 0 -70 0
-70 -65 0 -64 0 -3 68 -3 67 -65 3 -65 3 3 64 3 65 -70 0 -71 0 0 -65 0 -65
-65 0 -65 0 0 65 0 65 -70 0 -70 0 0 65 0 65 -65 0 -65 0 0 -65z m130 -130 l0
-65 70 0 70 0 0 -70 0 -70 65 0 65 0 0 70 0 71 68 -3 67 -3 3 -67 3 -68 64 0
65 0 0 -65 0 -65 65 0 65 0 0 65 0 65 65 0 65 0 0 -65 0 -65 -65 0 -65 0 0
-70 0 -70 -65 0 -65 0 0 -65 0 -65 -65 0 -65 0 0 -65 0 -65 -70 0 -70 0 0 -65
0 -64 -62 -3 -63 -3 -3 -67 -3 -67 -67 -3 -67 -3 -3 -62 -3 -63 -64 0 -65 0 0
65 0 65 65 0 66 0 -3 68 -3 67 -62 3 -63 3 0 64 0 65 65 0 65 0 0 65 0 65 70
0 70 0 0 65 0 65 65 0 65 0 0 70 0 70 -65 0 -65 0 0 65 0 65 -70 0 -70 0 0 70
0 70 -65 0 -65 0 0 65 0 65 65 0 65 0 0 -65z"/>
<path d="M800 5665 l0 -65 70 0 70 0 0 -70 0 -70 -70 0 -70 0 0 -65 0 -65 -65
0 -65 0 0 -65 0 -65 -70 0 -70 0 0 -65 0 -65 70 0 70 0 0 65 0 65 65 0 65 0 0
65 0 64 68 3 67 3 3 62 3 62 62 3 62 3 3 68 3 67 -66 0 -65 0 0 65 0 65 -70 0
-70 0 0 -65z"/>
<path d="M1742 6333 l3 -68 60 0 60 0 3 68 3 67 -66 0 -66 0 3 -67z"/>
<path d="M2002 6333 l3 -68 60 0 60 0 3 68 3 67 -66 0 -66 0 3 -67z"/>
<path d="M3600 6330 l0 -70 -65 0 -65 0 0 -60 0 -60 65 0 65 0 0 60 0 60 65 0
65 0 0 -65 0 -65 -60 0 -60 0 0 -65 0 -65 60 0 60 0 0 65 0 65 70 0 70 0 0 65
0 64 63 3 62 3 3 68 3 67 -66 0 -65 0 0 -70 0 -70 -70 0 -70 0 0 70 0 70 -65
0 -65 0 0 -70z"/>
<path d="M5202 6333 l3 -68 62 -3 62 -3 3 -62 3 -62 68 -3 67 -3 0 -64 0 -65
65 0 65 0 0 -65 0 -64 68 -3 67 -3 3 -67 3 -68 64 0 65 0 0 -65 0 -65 65 0 64
0 3 -67 3 -68 39 -3 c22 -2 50 -1 63 2 21 6 23 12 23 71 l0 65 70 0 70 0 0
-70 0 -70 -70 0 -71 0 3 -62 3 -63 68 -3 67 -3 0 -64 0 -65 65 0 65 0 0 65 0
65 -65 0 -65 0 0 65 c0 45 4 65 13 66 6 0 36 0 65 -1 l52 -1 0 70 0 71 -65 0
-65 0 0 65 0 65 65 0 65 0 0 70 0 71 -62 -3 -63 -3 -3 -67 -3 -67 -67 -3 -67
-3 -3 -62 -3 -63 -64 0 -65 0 0 65 0 65 65 0 65 0 0 70 0 70 70 0 70 0 0 65 0
65 65 0 65 0 0 65 0 65 -65 0 -65 0 0 65 0 65 65 0 65 0 0 70 0 70 -65 0 -65
0 0 -70 0 -70 -70 0 -70 0 0 70 0 70 -65 0 -65 0 0 -70 0 -70 -65 0 -66 0 3
-62 3 -63 63 -3 62 -3 0 -64 0 -65 -65 0 -65 0 0 65 0 65 -65 0 -65 0 0 -65 0
-65 -70 0 -70 0 0 65 0 64 68 3 67 3 3 62 3 62 62 3 62 3 3 68 3 67 -66 0 -65
0 0 -70 0 -70 -70 0 -70 0 0 70 0 70 -65 0 -65 0 0 -70 0 -70 -70 0 -70 0 0
70 0 70 -65 0 -66 0 3 -67z m398 -138 l0 -65 -65 0 -65 0 0 65 0 65 65 0 65 0
0 -65z m530 0 l0 -65 70 0 70 0 0 -65 0 -65 -70 0 -70 0 0 -65 0 -64 -62 -3
-63 -3 -3 -67 -3 -68 -64 0 -64 0 -3 68 -3 67 -62 3 -63 3 0 64 0 65 65 0 65
0 0 -65 0 -65 65 0 65 0 0 65 0 65 65 0 65 0 0 65 0 65 -65 0 -65 0 0 65 0 65
65 0 65 0 0 -65z"/>
<path d="M3600 5135 l0 -64 -132 -3 -133 -3 -1 -65 -1 -65 -67 -3 -66 -3 0
-64 0 -65 -65 0 -65 0 0 -65 0 -64 -67 -3 -68 -3 -3 -132 -3 -133 -64 0 -65 0
0 -65 0 -64 -67 -3 -68 -3 3 -132 3 -133 -71 0 -70 0 0 -67 0 -68 -65 3 -65 4
0 -136 0 -136 -65 0 -65 0 0 -65 0 -65 -70 0 -70 0 0 -70 0 -70 -65 0 -65 0 0
-135 0 -135 -65 0 -65 0 0 -130 0 -130 -65 0 -65 0 0 -270 0 -270 65 0 65 0 0
-130 0 -130 71 0 71 0 -7 265 -7 265 70 0 70 0 -5 265 -6 265 204 2 204 3 3
68 3 67 64 0 65 0 0 65 0 65 65 0 65 0 0 70 0 70 65 0 65 0 0 -70 0 -70 70 0
70 0 0 -135 0 -135 65 0 65 0 0 205 0 205 130 0 130 0 0 60 0 60 -130 0 -130
0 0 -60 0 -60 -65 0 -65 0 -2 108 c-1 59 -2 116 -2 127 -1 19 6 20 134 25
l135 5 3 63 3 62 129 0 130 0 0 70 0 70 65 0 65 0 0 65 0 65 270 0 270 0 0
-65 0 -65 65 0 65 0 0 -135 0 -135 -130 0 -129 0 -3 -67 -3 -68 -67 -3 -68 -3
0 -59 0 -60 200 0 199 0 3 63 3 62 63 3 62 3 0 64 0 65 70 0 70 0 0 135 0 135
65 0 65 0 0 200 0 200 -65 0 -65 0 0 136 0 135 -67 -2 -68 -3 -2 125 c-1 68
-3 127 -3 132 0 4 -29 7 -65 7 l-65 0 0 70 0 70 -130 0 -130 0 0 65 0 65 -270
0 -270 0 0 -65z m-670 -1307 c0 -18 3 -77 7 -130 l6 -98 -136 0 -137 0 0 -65
0 -65 -65 0 -65 0 0 -70 0 -70 -70 0 -70 0 0 -65 0 -65 -65 0 -65 0 0 65 0 65
65 0 65 0 0 135 0 135 70 0 70 0 0 65 0 65 130 0 130 0 0 65 0 65 65 0 65 0 0
-32z m93 -105 c-13 -2 -35 -2 -50 0 -16 2 -5 4 22 4 28 0 40 -2 28 -4z"/>
<path d="M3870 3730 l0 -130 65 0 65 0 0 130 0 130 -65 0 -65 0 0 -130z"/>
<path d="M3470 3396 l0 -65 252 1 c138 0 257 2 265 5 9 3 13 24 13 64 l0 59
-265 0 -265 0 0 -64z"/>
<path d="M3070 2800 l0 -130 65 0 65 0 0 130 0 130 -65 0 -65 0 0 -130z"/>
<path d="M2670 2595 l0 -65 -65 0 -65 0 0 -65 0 -65 195 0 195 0 0 65 0 65
-65 0 -65 0 0 65 0 65 -65 0 -65 0 0 -65z"/>
<path d="M2940 2595 l0 -66 63 3 62 3 3 63 3 62 -66 0 -65 0 0 -65z"/>
<path d="M3340 1795 l0 -195 60 0 60 0 0 195 0 195 -60 0 -60 0 0 -195z"/>
<path d="M6140 1930 l0 -60 65 0 65 0 0 60 0 60 -65 0 -65 0 0 -60z"/>
<path d="M2939 1865 c-1 0 -1 -135 0 -198 l1 -68 63 3 62 3 0 130 0 130 -62 0
c-35 0 -63 0 -64 0z"/>
<path d="M6277 1863 c-4 -3 -7 -35 -7 -70 l0 -63 -70 0 -70 0 0 65 0 65 -60 0
-60 0 0 -65 0 -65 60 0 60 0 0 -65 0 -65 -65 0 -65 0 0 65 0 65 -65 0 -65 0 0
-65 0 -65 65 0 65 0 0 -70 0 -70 -65 0 -65 0 0 -65 0 -65 -65 0 -65 0 0 -65 0
-65 -70 0 -70 0 0 65 0 64 68 3 67 3 3 63 3 62 -71 0 -70 0 0 -65 0 -65 -65 0
-65 0 0 -65 0 -65 65 0 65 0 0 -65 0 -65 -65 0 -65 0 0 60 0 60 -65 0 -65 0 0
-60 0 -60 65 0 65 0 0 -70 0 -69 -67 -3 -68 -3 -3 -62 -3 -63 -64 0 -65 0 0
65 0 65 65 0 65 0 0 65 0 65 -60 0 -59 0 -3 -62 -3 -63 -67 -3 -68 -3 0 -64 0
-65 -65 0 -65 0 0 -70 0 -70 -70 0 -70 0 0 -65 0 -65 -65 0 -65 0 0 -65 0 -65
65 0 65 0 0 -65 0 -65 -65 0 -65 0 0 -70 0 -70 -70 0 -70 0 0 65 0 65 -60 0
-59 0 -3 -62 -3 -63 -67 -3 -68 -3 0 -64 0 -65 65 0 65 0 0 65 0 65 65 0 65 0
0 -65 0 -65 70 0 70 0 0 65 0 65 65 0 65 0 0 -65 0 -65 71 0 71 0 -4 63 -3 62
-67 3 -68 3 0 70 0 70 68 -3 67 -3 3 -67 3 -68 64 0 65 0 0 -65 0 -65 65 0 65
0 0 65 0 65 65 0 65 0 0 70 0 70 70 0 70 0 0 65 0 65 65 0 65 0 0 -65 0 -64
-62 -3 -63 -3 -3 -67 -3 -67 -67 -3 -67 -3 -3 -62 -3 -63 71 0 70 0 0 65 0 65
65 0 65 0 0 -65 0 -65 71 0 70 0 -2 62 -3 63 65 5 64 5 0 65 0 65 -62 3 -61 3
-4 60 c-1 34 -1 63 1 65 2 2 33 4 68 4 l63 0 0 -65 0 -65 65 0 65 0 0 -70 0
-70 -65 0 -65 0 0 -65 0 -65 65 0 65 0 0 65 0 65 65 0 65 0 0 70 0 70 70 0 70
0 0 65 0 65 65 0 65 0 0 65 0 65 -65 0 -65 0 0 65 c0 45 4 65 13 66 6 0 36 0
65 -1 l52 -1 0 70 0 71 -65 0 -65 0 0 65 0 65 65 0 65 0 0 70 0 71 -62 -3 -63
-3 -3 -67 -3 -68 -69 0 -70 0 0 70 0 70 70 0 70 0 0 65 0 65 65 0 65 0 0 65 0
65 -65 0 -65 0 0 -65 0 -65 -70 0 -70 0 0 65 0 64 68 3 67 3 3 63 3 62 64 0
65 0 0 70 0 70 -65 0 -65 0 0 65 0 65 65 0 65 0 0 70 0 70 -58 0 c-32 0 -62
-3 -65 -7z m-7 -333 l0 -70 -70 0 -70 0 0 -65 0 -65 -65 0 -65 0 0 -65 0 -65
-65 0 -65 0 0 -65 0 -65 65 0 64 0 3 63 3 62 63 3 62 3 0 -66 0 -65 -65 0 -65
0 0 -70 0 -70 65 0 65 0 0 -65 0 -65 70 0 70 0 0 -70 0 -70 -70 0 -70 0 0 -65
0 -65 70 0 70 0 0 -65 0 -65 -70 0 -70 0 0 65 0 65 -65 0 -65 0 0 -65 0 -65
63 0 c35 0 66 -2 68 -4 2 -2 2 -32 1 -65 l-4 -61 -64 0 -64 0 0 65 0 65 -65 0
-65 0 0 65 0 65 -65 0 -65 0 0 -65 0 -65 -70 0 -70 0 0 65 0 65 -65 0 -65 0 0
-65 0 -65 -70 0 -70 0 0 -65 0 -65 -65 0 -65 0 0 -70 0 -70 -65 0 -65 0 0 70
0 70 -65 0 -65 0 0 65 0 65 -70 0 -70 0 0 65 0 64 68 3 67 3 3 63 3 62 64 0
65 0 0 70 0 70 65 0 65 0 0 -70 0 -70 65 0 65 0 0 70 0 70 70 0 70 0 0 65 0
65 65 0 65 0 0 70 0 70 70 0 70 0 0 65 0 65 65 0 65 0 0 65 0 65 65 0 65 0 0
65 0 65 65 0 65 0 0 70 0 70 70 0 70 0 0 -70z m-530 -1330 l0 -70 -70 0 -70 0
0 70 0 70 70 0 70 0 0 -70z"/>
<path d="M5740 1000 l0 -70 -70 0 -70 0 0 -65 0 -65 -65 0 -65 0 0 -70 0 -70
-70 0 -70 0 0 -65 0 -65 -65 0 -65 0 0 65 0 65 -65 0 -65 0 0 -65 0 -65 -65 0
-65 0 0 -65 0 -65 65 0 65 0 0 -65 0 -65 65 0 64 0 3 62 3 63 63 3 62 3 0 64
0 65 70 0 70 0 0 65 0 65 65 0 65 0 0 -65 0 -66 68 3 67 3 3 63 3 62 64 0 64
0 3 -62 3 -63 63 -3 62 -3 0 66 0 65 65 0 65 0 0 70 0 70 -65 0 -65 0 0 65 0
65 -65 0 -65 0 0 70 0 70 -65 0 -65 0 0 -70z m130 -135 l0 -65 65 0 65 0 0
-70 0 -70 -65 0 -65 0 0 70 0 70 -65 0 -65 0 0 -70 0 -70 -70 0 -70 0 0 70 0
70 70 0 70 0 0 65 0 65 65 0 65 0 0 -65z m-670 -400 l0 -65 -65 0 -65 0 0 65
0 65 65 0 65 0 0 -65z"/>
<path d="M2810 1535 l0 -65 60 0 60 0 0 65 0 65 -60 0 -60 0 0 -65z"/>
<path d="M3207 1593 c-4 -3 -7 -33 -7 -65 l0 -58 65 0 65 0 0 65 0 65 -58 0
c-32 0 -62 -3 -65 -7z"/>
<path d="M2670 1400 l0 -60 65 0 65 0 0 60 0 60 -65 0 -65 0 0 -60z"/>
<path d="M3070 1400 l0 -60 65 0 65 0 0 60 0 60 -65 0 -65 0 0 -60z"/>
<path d="M2540 1065 l0 -265 60 0 59 0 3 66 3 67 68 -1 67 0 0 63 0 64 -67 3
-68 3 -3 133 -3 132 -59 0 -60 0 0 -265z"/>
<path d="M2940 1265 l0 -65 65 0 65 0 0 65 0 65 -65 0 -65 0 0 -65z"/>
<path d="M0 1135 l0 -65 70 0 70 0 0 -70 0 -70 -70 0 -70 0 0 -65 0 -65 70 0
70 0 0 -70 0 -70 -70 0 -70 0 0 -65 0 -65 64 0 c73 0 76 3 76 80 l0 49 63 3
62 3 3 68 3 67 64 0 65 0 0 -70 0 -70 -65 0 -65 0 0 -65 0 -65 -65 0 -65 0 0
-65 0 -65 65 0 65 0 0 -65 0 -65 -65 0 -65 0 0 -70 0 -70 -70 0 -70 0 0 -65 0
-65 70 0 70 0 0 65 0 65 65 0 65 0 0 -65 0 -65 65 0 65 0 0 65 0 65 65 0 65 0
0 -65 0 -65 70 0 70 0 0 65 0 65 65 0 65 0 0 -65 0 -65 70 0 70 0 0 65 0 64
63 3 62 3 0 65 0 65 -62 3 -62 3 -3 62 -3 62 -67 3 -68 3 0 64 0 65 -65 0 -65
0 0 65 0 65 -70 0 -70 0 0 70 0 70 -65 0 -65 0 0 65 0 65 -65 0 -65 0 0 -65 0
-65 -65 0 -65 0 0 65 0 64 63 3 62 3 0 65 0 65 -62 3 -62 3 -3 62 -3 62 -67 3
-68 3 0 -66z m532 -538 l3 -62 68 -3 67 -3 0 -64 0 -65 65 0 65 0 0 -65 0 -64
68 -3 67 -3 3 -68 3 -67 -71 0 -70 0 0 70 0 70 -65 0 -65 0 0 -70 0 -70 -70 0
-70 0 0 70 0 70 -65 0 -65 0 0 -70 0 -70 -65 0 -65 0 0 70 0 70 65 0 65 0 0
65 0 65 -64 0 -64 0 -4 49 c-5 80 -5 81 68 81 l64 0 0 64 c0 73 1 73 81 68
l48 -4 3 -61z"/>
<path d="M400 465 l0 -65 65 0 65 0 0 -65 0 -65 70 0 70 0 0 65 0 65 -70 0
-70 0 0 65 0 65 -65 0 -65 0 0 -65z"/>
<path d="M2810 1130 l0 -60 60 0 60 0 0 60 0 60 -60 0 -60 0 0 -60z"/>
<path d="M0 335 l0 -66 68 3 67 3 0 60 0 60 -67 3 -68 3 0 -66z"/>
<path d="M2670 330 l0 -60 -65 0 -65 0 0 -70 0 -70 -70 0 -70 0 0 -65 0 -65
71 0 70 0 -2 62 -3 63 65 5 64 5 3 68 3 67 64 0 65 0 0 60 0 60 -65 0 -65 0 0
-60z"/>
<path d="M6277 263 c-4 -3 -7 -35 -7 -69 l0 -63 -67 -3 -68 -3 -3 -63 -3 -62
71 0 70 0 0 65 0 65 65 0 65 0 0 70 0 70 -58 0 c-32 0 -62 -3 -65 -7z"/>
<path d="M2800 195 l0 -65 -65 0 -65 0 0 -65 0 -65 65 0 65 0 0 65 0 65 65 0
65 0 0 -65 0 -65 70 0 70 0 0 65 0 65 -70 0 -70 0 0 65 0 65 -65 0 -65 0 0
-65z"/>
<path d="M1070 65 l0 -65 65 0 65 0 0 65 0 65 -65 0 -65 0 0 -65z"/>
</g>
</svg>
